<svg id="Camada_1" data-name="Camada 1" xmlns="http://www.w3.org/2000/svg" viewBox="0 0 628 120"><defs><style>.cls-1{font-size:92.27px;font-family:BebasNeue-Regular, Bebas Neue;}.cls-1,.cls-6{fill:#5d866c;}.cls-2{letter-spacing:0em;}.cls-3{letter-spacing:0em;}.cls-4{letter-spacing:0em;}.cls-5{letter-spacing:0em;}</style></defs><title>logo_da_horizontal</title><text class="cls-1" transform="translate(181.1 95.32)"><tspan class="cls-2">D</tspan><tspan x="37.27" y="0">ADOS ABE</tspan><tspan class="cls-3" x="305.49" y="0">R</tspan><tspan class="cls-4" x="342.49" y="0">T</tspan><tspan class="cls-5" x="375.7" y="0">OS</tspan></text><rect class="cls-6" x="133.76" y="82.61" width="8.8" height="8.8"/><rect class="cls-6" x="108.59" y="91.3" width="8.8" height="8.8"/><rect class="cls-6" x="118.42" y="78.21" width="8.8" height="8.8"/><rect class="cls-6" x="120.56" y="17.88" width="8.8" height="8.8"/><rect class="cls-6" x="130.49" y="38.42" width="14.67" height="14.67"/><rect class="cls-6" x="148.23" y="19.12" width="14.67" height="14.67"/><rect class="cls-6" x="105.54" y="5.92" width="8.8" height="8.8"/><rect class="cls-6" x="109.94" y="22.28" width="8.8" height="8.8"/><rect class="cls-6" x="124.08" y="62.18" width="8.8" height="8.8"/><rect class="cls-6" x="116.16" y="48.05" width="8.8" height="8.8"/><rect class="cls-6" x="145.75" y="62.18" width="8.8" height="8.8"/><path class="cls-6" d="M104.08,101.57V89.83h6V82.67h4.66v-9h5.78l.09-.42V66.58h-3.19V60.15h-2.94V57.49h-5.21v-8.8h5.21V45.48h1.47V35.73l-.11-.23h-7.56v7.32h-8.8V34h8.32V24.51h-7.33V20.77H95V12.11A58.5,58.5,0,0,0,81.64,5.65v6.56h-8.8V3.46A58.68,58.68,0,1,0,63.1,120a58.49,58.49,0,0,0,42.69-18.43ZM59.53,7.81h8.81v8.8H59.53Zm-26.94,7.9H41.4v8.8H32.59ZM45.8,104.5H37V95.7H45.8ZM91,88.15H82.2V83.94L63.1,76V78.8H57.49L64.6,90.34h7.76v11.74H60.62V90.34h1.22L54.73,78.8H39.63V69.56L26.5,72.19v4.62H17.7V68h8.8V69.8l13.13-2.63V61.12l-8-12.91H21.33V36.48H33.06V46l6.57,10.66V55.33h11l.63-12.51H48.89V31.08H60.62V42.82h-7L53,55.33H55.8L72.76,37h-.83V22.28H86.6V37H76L59,55.33H63.1v9.19l27.77-3.19V53.87h14.67V68.53H90.87V63.7L63.1,66.88v6.54l19.1,8v-2H91Z"/></svg>