<?xml version="1.0" encoding="UTF-8" standalone="no"?>
<!-- Created with Inkscape (http://www.inkscape.org/) -->

<svg
   version="1.1"
   id="svg23275"
   xml:space="preserve"
   width="300"
   height="50"
   viewBox="0 0 300 50.000001"
   sodipodi:docname="logo_da.svg"
   inkscape:version="1.1.2 (0a00cf5339, 2022-02-04)"
   xmlns:inkscape="http://www.inkscape.org/namespaces/inkscape"
   xmlns:sodipodi="http://sodipodi.sourceforge.net/DTD/sodipodi-0.dtd"
   xmlns="http://www.w3.org/2000/svg"
   xmlns:svg="http://www.w3.org/2000/svg"><defs
     id="defs23279"><inkscape:path-effect
       effect="fillet_chamfer"
       id="path-effect77370"
       is_visible="true"
       lpeversion="1"
       satellites_param="F,0,0,1,0,1,0,1 @ F,0,0,1,0,1,0,1 @ F,0,0,1,0,1,0,1 @ F,0,0,1,0,1,0,1"
       unit="px"
       method="auto"
       mode="F"
       radius="1"
       chamfer_steps="1"
       flexible="false"
       use_knot_distance="true"
       apply_no_radius="true"
       apply_with_radius="true"
       only_selected="false"
       hide_knots="false" /><clipPath
       clipPathUnits="userSpaceOnUse"
       id="clipPath23323"><path
         d="M 0,1540 H 2720 V 0 H 0 Z"
         id="path23321" /></clipPath><clipPath
       clipPathUnits="userSpaceOnUse"
       id="clipPath862"><path
         d="M 0,1540 H 2720 V 0 H 0 Z"
         id="path860" /></clipPath></defs><sodipodi:namedview
     id="namedview23277"
     pagecolor="#505050"
     bordercolor="#eeeeee"
     borderopacity="1"
     inkscape:pageshadow="0"
     inkscape:pageopacity="0"
     inkscape:pagecheckerboard="0"
     showgrid="false"
     inkscape:snap-page="false"
     inkscape:zoom="2.6337433"
     inkscape:cx="146.17978"
     inkscape:cy="40.436743"
     inkscape:window-width="1536"
     inkscape:window-height="795"
     inkscape:window-x="0"
     inkscape:window-y="32"
     inkscape:window-maximized="1"
     inkscape:current-layer="g23281"
     width="300px"
     showguides="true"
     inkscape:guide-bbox="true"><sodipodi:guide
       position="184.90394,40.350376"
       orientation="0,-1"
       id="guide1675" /><sodipodi:guide
       position="179.65558,8.4055664"
       orientation="0,-1"
       id="guide1677" /></sodipodi:namedview><g
     id="g23281"
     inkscape:groupmode="layer"
     inkscape:label="_prancheta_v7b"
     transform="matrix(1.3333333,0,0,-1.3333333,0,2053.3333)"><g
       id="g23345"
       transform="matrix(0.44282507,0,0,0.44282507,6.6691978,1512.2269)"
       style="fill:#79b78b;fill-opacity:1"><path
         d="M 0,0 C 1.392,0 2.461,0.412 3.208,1.237 3.954,2.06 4.329,3.401 4.329,5.256 V 33.39 c 0,1.855 -0.375,3.194 -1.121,4.019 C 2.461,38.233 1.392,38.646 0,38.646 H -4.328 V 0 Z M -12.83,46.375 H 0.155 c 4.225,0 7.393,-1.134 9.506,-3.401 2.113,-2.268 3.17,-5.592 3.17,-9.971 V 5.642 c 0,-4.38 -1.057,-7.703 -3.17,-9.97 C 7.548,-6.596 4.38,-7.729 0.155,-7.729 H -12.83 Z"
         style="fill:#79b78b;fill-opacity:1;fill-rule:nonzero;stroke:none"
         id="path23347" /></g><g
       id="g23349"
       transform="matrix(0.44282507,0,0,0.44282507,21.83144,1516.7448)"
       style="fill:#79b78b;fill-opacity:1"><path
         d="M 0,0 -3.787,26.743 H -3.942 L -7.652,0 Z M -9.275,36.172 H 2.241 l 8.812,-54.103 H 2.55 L 1.004,-7.188 v -0.155 h -9.661 l -1.545,-10.588 h -7.884 z"
         style="fill:#79b78b;fill-opacity:1;fill-rule:nonzero;stroke:none"
         id="path23351" /></g><g
       id="g23353"
       transform="matrix(0.44282507,0,0,0.44282507,34.220755,1512.2269)"
       style="fill:#79b78b;fill-opacity:1"><path
         d="M 0,0 C 1.392,0 2.461,0.412 3.208,1.237 3.954,2.06 4.329,3.401 4.329,5.256 V 33.39 c 0,1.855 -0.375,3.194 -1.121,4.019 C 2.461,38.233 1.392,38.646 0,38.646 H -4.328 V 0 Z M -12.83,46.375 H 0.155 c 4.225,0 7.393,-1.134 9.506,-3.401 2.113,-2.268 3.17,-5.592 3.17,-9.971 V 5.642 c 0,-4.38 -1.057,-7.703 -3.17,-9.97 C 7.548,-6.596 4.38,-7.729 0.155,-7.729 H -12.83 Z"
         style="fill:#79b78b;fill-opacity:1;fill-rule:nonzero;stroke:none"
         id="path23355" /></g><g
       id="g23357"
       transform="matrix(0.44282507,0,0,0.44282507,49.82777,1514.2463)"
       style="fill:#79b78b;fill-opacity:1"><path
         d="m 0,0 v 29.525 c 0,3.556 -1.469,5.333 -4.406,5.333 -2.936,0 -4.405,-1.777 -4.405,-5.333 V 0 c 0,-3.555 1.469,-5.333 4.405,-5.333 C -1.469,-5.333 0,-3.555 0,0 m -13.99,-9.507 c -2.216,2.37 -3.324,5.72 -3.324,10.048 v 28.443 c 0,4.329 1.108,7.677 3.324,10.048 2.215,2.37 5.411,3.556 9.584,3.556 4.174,0 7.369,-1.186 9.584,-3.556 2.215,-2.371 3.324,-5.719 3.324,-10.048 V 0.541 c 0,-4.328 -1.109,-7.678 -3.324,-10.048 -2.215,-2.37 -5.41,-3.555 -9.584,-3.555 -4.173,0 -7.369,1.185 -9.584,3.555"
         style="fill:#79b78b;fill-opacity:1;fill-rule:nonzero;stroke:none"
         id="path23359" /></g><g
       id="g23361"
       transform="matrix(0.44282507,0,0,0.44282507,56.878166,1510.0193)"
       style="fill:#79b78b;fill-opacity:1"><path
         d="m 0,0 c -2.113,2.344 -3.169,5.707 -3.169,10.087 v 3.091 h 8.038 v -3.71 c 0,-3.504 1.469,-5.255 4.406,-5.255 1.442,0 2.537,0.425 3.285,1.275 0.746,0.85 1.121,2.228 1.121,4.135 0,2.267 -0.516,4.263 -1.546,5.99 -1.032,1.726 -2.937,3.799 -5.72,6.222 -3.504,3.092 -5.951,5.886 -7.342,8.386 -1.392,2.498 -2.087,5.32 -2.087,8.463 0,4.277 1.082,7.587 3.246,9.932 2.164,2.344 5.306,3.517 9.429,3.517 4.07,0 7.15,-1.173 9.237,-3.517 2.087,-2.345 3.13,-5.707 3.13,-10.086 V 36.288 H 13.99 v 2.783 c 0,1.855 -0.361,3.207 -1.082,4.058 -0.723,0.85 -1.778,1.275 -3.169,1.275 -2.835,0 -4.252,-1.727 -4.252,-5.179 0,-1.959 0.528,-3.787 1.585,-5.487 1.056,-1.701 2.976,-3.762 5.759,-6.184 3.555,-3.091 6.002,-5.9 7.342,-8.424 1.339,-2.526 2.01,-5.488 2.01,-8.889 0,-4.432 -1.096,-7.833 -3.285,-10.202 C 16.707,-2.332 13.526,-3.517 9.352,-3.517 5.229,-3.517 2.112,-2.345 0,0"
         style="fill:#79b78b;fill-opacity:1;fill-rule:nonzero;stroke:none"
         id="path23363" /></g><g
       id="g23365"
       transform="matrix(0.44282507,0,0,0.44282507,81.349742,1516.7448)"
       style="fill:#79b78b;fill-opacity:1"><path
         d="M 0,0 -3.787,26.743 H -3.942 L -7.652,0 Z M -9.275,36.172 H 2.241 l 8.812,-54.103 H 2.55 L 1.004,-7.188 v -0.155 h -9.661 l -1.546,-10.588 h -7.884 z"
         style="fill:#79b78b;fill-opacity:1;fill-rule:nonzero;stroke:none"
         id="path23367" /></g><g
       id="g23369"
       transform="matrix(0.44282507,0,0,0.44282507,93.978581,1512.2269)"
       style="fill:#79b78b;fill-opacity:1"><path
         d="m 0,0 c 1.494,0 2.602,0.399 3.324,1.198 0.721,0.798 1.082,2.176 1.082,4.135 v 4.715 c 0,2.473 -0.425,4.186 -1.276,5.14 -0.85,0.953 -2.254,1.43 -4.212,1.43 H -4.869 V 0 Z m -1.545,24.347 c 1.7,0 2.975,0.437 3.825,1.314 0.85,0.875 1.276,2.344 1.276,4.405 v 3.015 c 0,1.957 -0.348,3.374 -1.044,4.251 -0.696,0.875 -1.791,1.314 -3.284,1.314 H -4.869 V 24.347 Z m -11.826,22.028 h 12.83 c 4.38,0 7.575,-1.018 9.584,-3.053 2.01,-2.036 3.015,-5.167 3.015,-9.391 v -2.164 c 0,-2.783 -0.452,-5.051 -1.353,-6.802 C 9.803,23.213 8.425,21.951 6.57,21.178 V 21.023 C 10.794,19.58 12.908,15.818 12.908,9.739 V 5.101 c 0,-4.174 -1.096,-7.356 -3.285,-9.545 C 7.432,-6.635 4.225,-7.729 0,-7.729 h -13.371 z"
         style="fill:#79b78b;fill-opacity:1;fill-rule:nonzero;stroke:none"
         id="path23371" /></g><g
       id="g23373"
       transform="matrix(0.44282507,0,0,0.44282507,101.88482,1532.7628)"
       style="fill:#79b78b;fill-opacity:1"><path
         d="M 0,0 H 23.187 V -7.729 H 8.502 v -14.299 h 11.671 v -7.729 H 8.502 v -16.618 h 14.685 v -7.729 H 0 Z"
         style="fill:#79b78b;fill-opacity:1;fill-rule:nonzero;stroke:none"
         id="path23375" /></g><g
       id="g23377"
       transform="matrix(0.44282507,0,0,0.44282507,119.44266,1522.4949)"
       style="fill:#79b78b;fill-opacity:1"><path
         d="m 0,0 c 1.7,0 2.976,0.437 3.826,1.314 0.85,0.875 1.275,2.344 1.275,4.405 v 4.174 c 0,1.958 -0.347,3.374 -1.043,4.251 -0.696,0.876 -1.791,1.314 -3.285,1.314 H -3.092 V 0 Z M -11.594,23.187 H 1.005 c 4.379,0 7.574,-1.018 9.584,-3.053 2.01,-2.036 3.014,-5.166 3.014,-9.391 V 7.42 c 0,-5.617 -1.855,-9.172 -5.565,-10.666 v -0.155 c 2.06,-0.618 3.517,-1.881 4.367,-3.787 0.85,-1.907 1.276,-4.458 1.276,-7.652 v -9.507 c 0,-1.546 0.05,-2.796 0.154,-3.748 0.103,-0.954 0.36,-1.894 0.773,-2.822 H 5.951 c -0.309,0.876 -0.515,1.701 -0.618,2.474 -0.104,0.773 -0.155,2.164 -0.155,4.173 v 9.894 c 0,2.473 -0.399,4.199 -1.197,5.178 -0.8,0.978 -2.178,1.469 -4.136,1.469 h -2.937 v -23.188 h -8.502 z"
         style="fill:#79b78b;fill-opacity:1;fill-rule:nonzero;stroke:none"
         id="path23379" /></g><g
       id="g23381"
       transform="matrix(0.44282507,0,0,0.44282507,130.97679,1529.3402)"
       style="fill:#79b78b;fill-opacity:1"><path
         d="M 0,0 H -8.888 V 7.729 H 17.391 V 0 H 8.502 V -46.375 H 0 Z"
         style="fill:#79b78b;fill-opacity:1;fill-rule:nonzero;stroke:none"
         id="path23383" /></g><g
       id="g23385"
       transform="matrix(0.44282507,0,0,0.44282507,147.74782,1514.2463)"
       style="fill:#79b78b;fill-opacity:1"><path
         d="m 0,0 v 29.525 c 0,3.556 -1.469,5.333 -4.406,5.333 -2.936,0 -4.405,-1.777 -4.405,-5.333 V 0 c 0,-3.555 1.469,-5.333 4.405,-5.333 C -1.469,-5.333 0,-3.555 0,0 m -13.99,-9.507 c -2.216,2.37 -3.324,5.72 -3.324,10.048 v 28.443 c 0,4.329 1.108,7.677 3.324,10.048 2.215,2.37 5.411,3.556 9.584,3.556 4.174,0 7.369,-1.186 9.584,-3.556 2.215,-2.371 3.324,-5.719 3.324,-10.048 V 0.541 c 0,-4.328 -1.109,-7.678 -3.324,-10.048 -2.215,-2.37 -5.41,-3.555 -9.584,-3.555 -4.173,0 -7.369,1.185 -9.584,3.555"
         style="fill:#79b78b;fill-opacity:1;fill-rule:nonzero;stroke:none"
         id="path23387" /></g><g
       id="g23389"
       transform="matrix(0.44282507,0,0,0.44282507,154.79821,1510.0193)"
       style="fill:#79b78b;fill-opacity:1"><path
         d="m 0,0 c -2.113,2.344 -3.169,5.707 -3.169,10.087 v 3.091 h 8.038 v -3.71 c 0,-3.504 1.469,-5.255 4.406,-5.255 1.442,0 2.537,0.425 3.285,1.275 0.746,0.85 1.121,2.228 1.121,4.135 0,2.267 -0.516,4.263 -1.546,5.99 -1.032,1.726 -2.937,3.799 -5.72,6.222 -3.504,3.092 -5.951,5.886 -7.342,8.386 -1.392,2.498 -2.087,5.32 -2.087,8.463 0,4.277 1.082,7.587 3.246,9.932 2.164,2.344 5.306,3.517 9.429,3.517 4.07,0 7.15,-1.173 9.237,-3.517 2.087,-2.345 3.13,-5.707 3.13,-10.086 V 36.288 H 13.99 v 2.783 c 0,1.855 -0.361,3.207 -1.082,4.058 -0.723,0.85 -1.778,1.275 -3.169,1.275 -2.835,0 -4.252,-1.727 -4.252,-5.179 0,-1.959 0.528,-3.787 1.585,-5.487 1.056,-1.701 2.976,-3.762 5.759,-6.184 3.555,-3.091 6.002,-5.9 7.342,-8.424 1.339,-2.526 2.01,-5.488 2.01,-8.889 0,-4.432 -1.096,-7.833 -3.285,-10.202 C 16.707,-2.332 13.526,-3.517 9.352,-3.517 5.229,-3.517 2.112,-2.345 0,0"
         style="fill:#79b78b;fill-opacity:1;fill-rule:nonzero;stroke:none"
         id="path23391" /></g><path
       d="m 194.27828,1529.0066 h -1.87818 v 3.7562 h 1.87818 z"
       style="fill:#5b9970;fill-opacity:1;fill-rule:nonzero;stroke:none;stroke-width:0.091507"
       id="path912" /><path
       d="m 212.09904,1512.3133 h -5.37328 v 3.7562 h 5.37328 z"
       style="fill:#5b9970;fill-opacity:1;fill-rule:nonzero;stroke:none;stroke-width:0.091507"
       id="path914" /><g
       id="g916"
       transform="matrix(0.09150678,0,0,0.09150678,220.19711,1509.7726)"><path
         d="m 0,0 -39.651,-10.624 -10.624,39.65 39.651,10.624 z"
         style="fill:#79b78b;fill-opacity:1;fill-rule:nonzero;stroke:none"
         id="path918" /></g><path
       d="m 194.27828,1508.8584 h -1.87818 v 3.7562 h 1.87818 z"
       style="fill:#5b9970;fill-opacity:1;fill-rule:nonzero;stroke:none;stroke-width:0.091507"
       id="path920" /><path
       d="m 198.03454,1529.0066 h -3.75626 v 3.7562 h 3.75626 z"
       style="fill:#5b9970;fill-opacity:1;fill-rule:nonzero;stroke:none;stroke-width:0.091507"
       id="path922" /><path
       d="m 198.03454,1508.8584 h -3.75626 v 3.7562 h 3.75626 z"
       style="fill:#5b9970;fill-opacity:1;fill-rule:nonzero;stroke:none;stroke-width:0.091507"
       id="path924" /><g
       id="g926"
       transform="matrix(0.09150678,0,0,0.09150678,198.99495,1508.8584)"><path
         d="M 0,0 H -10.495 V 41.049 H 30.554 V 30.554 C 30.554,13.68 16.875,0 0,0"
         style="fill:#5b9970;fill-opacity:1;fill-rule:nonzero;stroke:none"
         id="path928" /></g><g
       id="g930"
       transform="matrix(0.09150678,0,0,0.09150678,201.79086,1529.0066)"><path
         d="m 0,0 h -41.049 v 41.049 h 10.495 C -13.68,41.049 0,27.37 0,10.495 Z"
         style="fill:#5b9970;fill-opacity:1;fill-rule:nonzero;stroke:none"
         id="path932" /></g><path
       d="m 201.79089,1512.6147 h -3.75626 v 16.3919 h 3.75626 z"
       style="fill:#5b9970;fill-opacity:1;fill-rule:nonzero;stroke:none;stroke-width:0.091507"
       id="path934" /><path
       d="m 192.48905,1508.8584 h -3.75626 v 23.9044 h 3.75626 z"
       style="fill:#79b78b;fill-opacity:1;fill-rule:nonzero;stroke:none;stroke-width:0.091507"
       id="path936" /><g
       id="g938"
       transform="matrix(0.09150678,0,0,0.09150678,203.75571,1508.8591)"><path
         d="M 0,0 69.934,261.223 109.584,250.599 42.265,-0.642 Z"
         style="fill:#5b9970;fill-opacity:1;fill-rule:nonzero;stroke:none"
         id="path940" /></g><g
       id="g942"
       transform="matrix(0.09150678,0,0,0.09150678,214.62105,1516.0695)"><path
         d="m 0,0 -48.804,182.427 h 42.42 L 39.802,10.06 Z"
         style="fill:#5b9970;fill-opacity:1;fill-rule:nonzero;stroke:none"
         id="path944" /></g><path
       style="fill:#79b78b;fill-opacity:1;stroke-width:0;stroke-miterlimit:4;stroke-dasharray:none"
       id="rect42292"
       width="2.4861259"
       height="32.494888"
       x="175.65672"
       y="-1537.3446"
       transform="scale(1,-1)"
       inkscape:path-effect="#path-effect77370"
       d="m 176.65672,-1537.3446 h 0.48613 a 1,1 45 0 1 1,1 v 30.4949 a 1,1 135 0 1 -1,1 h -0.48613 a 1,1 45 0 1 -1,-1 v -30.4949 a 1,1 135 0 1 1,-1 z"
       sodipodi:type="rect" /></g></svg>
