<?xml version="1.0" encoding="utf-8"?>
<!-- Generator: Adobe Illustrator 24.0.1, SVG Export Plug-In . SVG Version: 6.00 Build 0)  -->
<svg version="1.1" id="Camada_1" xmlns="http://www.w3.org/2000/svg" xmlns:xlink="http://www.w3.org/1999/xlink" x="0px" y="0px"
	 viewBox="0 0 628 120" style="enable-background:new 0 0 628 120;" xml:space="preserve">
<style type="text/css">
	.st0{enable-background:new    ;}
	.st1{fill:#5D866C;}
</style>
<title>logo_da_horizontal</title>
<g>
	<g class="st0">
		<path class="st1" d="M184.9,30.7h15.5c5,0,8.8,1.4,11.3,4.1c2.5,2.7,3.8,6.7,3.8,11.9v32.7c0,5.2-1.3,9.2-3.8,11.9
			c-2.5,2.7-6.3,4.1-11.3,4.1h-15.5V30.7z M200.2,86.1c1.7,0,2.9-0.5,3.8-1.5c0.9-1,1.3-2.6,1.3-4.8V46.2c0-2.2-0.4-3.8-1.3-4.8
			c-0.9-1-2.2-1.5-3.8-1.5H195v46.1H200.2z"/>
	</g>
	<g class="st0">
		<path class="st1" d="M230,30.7h13.7l10.5,64.6h-10.1l-1.8-12.8v0.2h-11.5l-1.8,12.6h-9.4L230,30.7z M241.1,73.9L236.5,42h-0.2
			l-4.4,31.9H241.1z"/>
		<path class="st1" d="M259.2,30.7h15.5c5,0,8.8,1.4,11.3,4.1c2.5,2.7,3.8,6.7,3.8,11.9v32.7c0,5.2-1.3,9.2-3.8,11.9
			c-2.5,2.7-6.3,4.1-11.3,4.1h-15.5V30.7z M274.5,86.1c1.7,0,2.9-0.5,3.8-1.5c0.9-1,1.3-2.6,1.3-4.8V46.2c0-2.2-0.4-3.8-1.3-4.8
			c-0.9-1-2.2-1.5-3.8-1.5h-5.2v46.1H274.5z"/>
		<path class="st1" d="M299.8,92c-2.6-2.8-4-6.8-4-12V46c0-5.2,1.3-9.2,4-12c2.6-2.8,6.5-4.2,11.4-4.2c5,0,8.8,1.4,11.4,4.2
			c2.6,2.8,4,6.8,4,12v34c0,5.2-1.3,9.2-4,12c-2.6,2.8-6.5,4.2-11.4,4.2C306.3,96.2,302.5,94.8,299.8,92z M316.5,80.6V45.4
			c0-4.2-1.8-6.4-5.3-6.4s-5.3,2.1-5.3,6.4v35.2c0,4.2,1.8,6.4,5.3,6.4S316.5,84.9,316.5,80.6z"/>
		<path class="st1" d="M335.5,92c-2.5-2.8-3.8-6.8-3.8-12v-3.7h9.6v4.4c0,4.2,1.8,6.3,5.3,6.3c1.7,0,3-0.5,3.9-1.5
			c0.9-1,1.3-2.7,1.3-4.9c0-2.7-0.6-5.1-1.8-7.2c-1.2-2.1-3.5-4.5-6.8-7.4c-4.2-3.7-7.1-7-8.8-10c-1.7-3-2.5-6.4-2.5-10.1
			c0-5.1,1.3-9.1,3.9-11.9c2.6-2.8,6.3-4.2,11.3-4.2c4.9,0,8.5,1.4,11,4.2c2.5,2.8,3.7,6.8,3.7,12v2.7h-9.6v-3.3
			c0-2.2-0.4-3.8-1.3-4.8c-0.9-1-2.1-1.5-3.8-1.5c-3.4,0-5.1,2.1-5.1,6.2c0,2.3,0.6,4.5,1.9,6.6c1.3,2,3.6,4.5,6.9,7.4
			c4.2,3.7,7.2,7,8.8,10.1c1.6,3,2.4,6.6,2.4,10.6c0,5.3-1.3,9.4-3.9,12.2c-2.6,2.8-6.4,4.2-11.4,4.2
			C341.8,96.2,338.1,94.8,335.5,92z"/>
		<path class="st1" d="M390.4,30.7h13.7l10.5,64.6h-10.1l-1.8-12.8v0.2h-11.5l-1.8,12.6h-9.4L390.4,30.7z M401.5,73.9L397,42h-0.2
			l-4.4,31.9H401.5z"/>
		<path class="st1" d="M419.6,30.7h15.3c5.2,0,9,1.2,11.4,3.6c2.4,2.4,3.6,6.2,3.6,11.2v2.6c0,3.3-0.5,6-1.6,8.1
			c-1.1,2.1-2.7,3.6-4.9,4.5V61c5,1.7,7.6,6.2,7.6,13.5V80c0,5-1.3,8.8-3.9,11.4c-2.6,2.6-6.4,3.9-11.5,3.9h-16V30.7z M433.7,57
			c2,0,3.6-0.5,4.6-1.6c1-1,1.5-2.8,1.5-5.3v-3.6c0-2.3-0.4-4-1.2-5.1c-0.8-1-2.1-1.6-3.9-1.6h-4.9V57H433.7z M435.6,86.1
			c1.8,0,3.1-0.5,4-1.4c0.9-1,1.3-2.6,1.3-4.9v-5.6c0-3-0.5-5-1.5-6.1c-1-1.1-2.7-1.7-5-1.7h-4.5v19.8H435.6z"/>
		<path class="st1" d="M456.9,30.7h27.7V40H467V57H481v9.2H467v19.8h17.5v9.2h-27.7V30.7z"/>
	</g>
	<g class="st0">
		<path class="st1" d="M490.4,30.7h15c5.2,0,9,1.2,11.4,3.6c2.4,2.4,3.6,6.2,3.6,11.2v4c0,6.7-2.2,10.9-6.6,12.7v0.2
			c2.5,0.7,4.2,2.2,5.2,4.5c1,2.3,1.5,5.3,1.5,9.1v11.3c0,1.8,0.1,3.3,0.2,4.5c0.1,1.1,0.4,2.3,0.9,3.4h-10.3c-0.4-1-0.6-2-0.7-3
			c-0.1-0.9-0.2-2.6-0.2-5V75.6c0-3-0.5-5-1.4-6.2c-1-1.2-2.6-1.8-4.9-1.8h-3.5v27.7h-10.1V30.7z M504.2,58.4c2,0,3.6-0.5,4.6-1.6
			c1-1,1.5-2.8,1.5-5.3v-5c0-2.3-0.4-4-1.2-5.1c-0.8-1-2.1-1.6-3.9-1.6h-4.6v18.5H504.2z"/>
	</g>
	<g class="st0">
		<path class="st1" d="M535.3,40h-10.6v-9.2h31.4V40h-10.6v55.4h-10.1V40z"/>
	</g>
	<g class="st0">
		<path class="st1" d="M563.8,92c-2.6-2.8-4-6.8-4-12V46c0-5.2,1.3-9.2,4-12c2.6-2.8,6.5-4.2,11.4-4.2s8.8,1.4,11.4,4.2
			c2.6,2.8,4,6.8,4,12v34c0,5.2-1.3,9.2-4,12c-2.6,2.8-6.5,4.2-11.4,4.2S566.5,94.8,563.8,92z M580.5,80.6V45.4
			c0-4.2-1.8-6.4-5.3-6.4c-3.5,0-5.3,2.1-5.3,6.4v35.2c0,4.2,1.8,6.4,5.3,6.4C578.8,87,580.5,84.9,580.5,80.6z"/>
		<path class="st1" d="M599.5,92c-2.5-2.8-3.8-6.8-3.8-12v-3.7h9.6v4.4c0,4.2,1.8,6.3,5.3,6.3c1.7,0,3-0.5,3.9-1.5
			c0.9-1,1.3-2.7,1.3-4.9c0-2.7-0.6-5.1-1.8-7.2c-1.2-2.1-3.5-4.5-6.8-7.4c-4.2-3.7-7.1-7-8.8-10c-1.7-3-2.5-6.4-2.5-10.1
			c0-5.1,1.3-9.1,3.9-11.9c2.6-2.8,6.3-4.2,11.3-4.2c4.9,0,8.5,1.4,11,4.2c2.5,2.8,3.7,6.8,3.7,12v2.7h-9.6v-3.3
			c0-2.2-0.4-3.8-1.3-4.8c-0.9-1-2.1-1.5-3.8-1.5c-3.4,0-5.1,2.1-5.1,6.2c0,2.3,0.6,4.5,1.9,6.6c1.3,2,3.6,4.5,6.9,7.4
			c4.2,3.7,7.2,7,8.8,10.1c1.6,3,2.4,6.6,2.4,10.6c0,5.3-1.3,9.4-3.9,12.2c-2.6,2.8-6.4,4.2-11.4,4.2C605.8,96.2,602,94.8,599.5,92z
			"/>
	</g>
</g>
<rect x="133.8" y="82.6" class="st1" width="8.8" height="8.8"/>
<rect x="108.6" y="91.3" class="st1" width="8.8" height="8.8"/>
<rect x="118.4" y="78.2" class="st1" width="8.8" height="8.8"/>
<rect x="120.6" y="17.9" class="st1" width="8.8" height="8.8"/>
<rect x="130.5" y="38.4" class="st1" width="14.7" height="14.7"/>
<rect x="148.2" y="19.1" class="st1" width="14.7" height="14.7"/>
<rect x="105.5" y="5.9" class="st1" width="8.8" height="8.8"/>
<rect x="109.9" y="22.3" class="st1" width="8.8" height="8.8"/>
<rect x="124.1" y="62.2" class="st1" width="8.8" height="8.8"/>
<rect x="116.2" y="48" class="st1" width="8.8" height="8.8"/>
<rect x="145.8" y="62.2" class="st1" width="8.8" height="8.8"/>
<path class="st1" d="M104.1,101.6V89.8h6v-7.2h4.7v-9h5.8l0.1-0.4v-6.7h-3.2v-6.4h-2.9v-2.7h-5.2v-8.8h5.2v-3.2h1.5v-9.8l-0.1-0.2
	h-7.6v7.3h-8.8V34h8.3v-9.5h-7.3v-3.7H95v-8.7c-4.2-2.7-8.7-4.9-13.4-6.5v6.6h-8.8V3.5c-32-5.4-62.2,16.1-67.6,48.1
	s16.1,62.2,48.1,67.6c3.2,0.5,6.5,0.8,9.8,0.8c16.2,0,31.6-6.7,42.7-18.4H104.1z M59.5,7.8h8.8v8.8h-8.8V7.8z M32.6,15.7h8.8v8.8
	h-8.8L32.6,15.7z M45.8,104.5H37v-8.8h8.8V104.5z M91,88.2h-8.8v-4.2L63.1,76v2.8h-5.6l7.1,11.5h7.8v11.7H60.6V90.3h1.2l-7.1-11.5
	H39.6v-9.2l-13.1,2.6v4.6h-8.8V68h8.8v1.8l13.1-2.6v-6.1l-8-12.9H21.3V36.5h11.7V46l6.6,10.7v-1.3h11l0.6-12.5h-2.4V31.1h11.7v11.7
	h-7L53,55.3h2.8l17-18.3h-0.8V22.3h14.7V37H76L59,55.3h4.1v9.2l27.8-3.2v-7.5h14.7v14.7H90.9v-4.8l-27.8,3.2v6.5l19.1,8v-2H91V88.2z
	"/>
<text transform="matrix(1 0 0 1 562.5 1218)" style="font-family:'MyriadPro-Regular'; font-size:12px;">https://www.youtube.com/watch?v=g-CFt_1oeKI&amp;ab_channel=TuaSa%C3%BAde</text>
</svg>
